<svg xmlns="http://www.w3.org/2000/svg" viewBox="0 0 432 162"><title>Asset 1CRAi Digital Logo</title><g id="Layer_2" data-name="Layer 2"><g id="Layer_1-2" data-name="Layer 1"><path d="M40,81a40.44,40.44,0,0,0-15.66,3.35A4.5,4.5,0,0,1,18,80.25V0H0V162H18a4,4,0,0,1,5.69-3.64A40.51,40.51,0,1,0,40,81Zm1.66,63A22.5,22.5,0,1,1,63,122.67,22.5,22.5,0,0,1,41.67,144Z"/><path d="M153,81v.08a3.94,3.94,0,0,1-5.58,3.61,40.5,40.5,0,1,0,0,73.63,4,4,0,0,1,5.61,3.59V162h18V81Zm-21.33,63a22.5,22.5,0,1,1,21.3-21.3A22.5,22.5,0,0,1,131.67,144Z"/><path d="M333,81v.08a3.94,3.94,0,0,1-5.58,3.61,40.5,40.5,0,1,0,0,73.63,4,4,0,0,1,5.61,3.59V162h18V81Zm-21.33,63a22.5,22.5,0,1,1,21.3-21.3A22.5,22.5,0,0,1,311.67,144Z"/><rect x="414" y="81" width="18" height="81"/><circle cx="423" cy="63" r="9"/><path d="M220.65,81a40.31,40.31,0,0,0-16.32,3.36A4.5,4.5,0,0,1,198,80.25V0H180V162h18V121.87A22.75,22.75,0,0,1,220.12,99,22.5,22.5,0,0,1,243,121.5V162h18V122C261,99.63,243,81.08,220.65,81Z"/><path d="M382.5,81a4.49,4.49,0,0,1-4.5-4.5v27a4.49,4.49,0,0,1,4.5-4.5H405l0,0V81l0,0Z"/><path d="M400.22,144A22.77,22.77,0,0,1,378,121.1V0l0,0H360l0,0V121.5A40.5,40.5,0,0,0,400.5,162a41.32,41.32,0,0,0,4.48-.25,0,0,0,0,0,0,0V143.57l0,0A22.67,22.67,0,0,1,400.22,144Z"/></g></g></svg>